<svg id="svg2" xmlns:rdf="http://www.w3.org/1999/02/22-rdf-syntax-ns#" xmlns="http://www.w3.org/2000/svg" height="100.44mm" width="208.87mm" version="1.1" xmlns:cc="http://creativecommons.org/ns#" xmlns:dc="http://purl.org/dc/elements/1.1/" viewBox="0 0 740.09432 355.8945">
 <g id="layer1" transform="translate(-8.4791 -693.37)">
  <path id="rect5677" d="m264.16 693.37c-10.95 9.1331-27.38 12.547-41.685 8.1094-3.2997-1.0236-6.0588-1.7346-6.1327-1.5801-4.3145 9.0206-10.419 16.222-17.638 20.809-7.559 4.803-14.628 6.6792-24.995 6.6328-7.9234-0.0351-10.001-0.36889-14.965-2.4062-3.1704-1.3011-6.0362-2.3672-6.3666-2.3672-0.33046 0-2.7566 1.7594-5.3919 3.9102-5.6369 4.6002-15.399 9.4657-22.786 11.355-6.918 1.7697-17.99 2.389-24.503 1.3711-12.183-1.9037-23.217-7.2934-32.295-15.771l-6.2906-5.873-4.4504 1.5215c-15.763 5.3913-31.983 4.232-48.003-3.4062l-0.0625 333.82 739.87-0.08-0.0316-320.38c-4.688-0.17205-6.8558-0.70995-10.803-2.3301-3.1704-1.3011-6.0362-2.3652-6.3666-2.3652-0.33045 0-2.7566 1.7594-5.3919 3.9102-5.6369 4.6002-15.399 9.4637-22.786 11.354-6.9181 1.7697-17.99 2.389-24.503 1.3711-12.183-1.9037-23.219-7.2915-32.297-15.77l-6.2886-5.875-4.4504 1.5215c-15.946 5.4541-32.361 4.2158-48.562-3.6641-6.2089-3.0198-8.8387-5.0283-15.802-12.064-0.74208-0.74989-1.4203-1.447-2.0663-2.1211-1.3816 6.8148-4.4479 12.661-9.8228 19.203-10.43 12.695-29.921 18.128-46.539 12.973-3.2997-1.0236-6.0588-1.7346-6.1327-1.5801-4.3145 9.0206-10.419 16.222-17.638 20.809-7.559 4.803-14.628 6.6792-24.995 6.6328-7.9234-0.0351-10.001-0.37084-14.965-2.4082-3.1704-1.3011-6.0362-2.3652-6.3666-2.3652-0.33045 0-2.7566 1.7594-5.3919 3.9102-5.6369 4.6002-15.399 9.4637-22.786 11.354-6.9181 1.7697-17.99 2.3909-24.503 1.373-12.183-1.9037-23.217-7.2935-32.295-15.771l-6.2906-5.875-4.4504 1.5234c-15.946 5.4541-32.361 4.2138-48.562-3.666-6.2089-3.0198-8.8387-5.0264-15.802-12.062-6.4817-6.5498-9.0801-9.9269-11.603-15.076-4.5146-9.2159-6.7303-18.992-6.815-28.607z" fill="#b2c0f1"/>
  <path id="path4141" d="m748.57 1001.1-739.82 48.392h739.82z" fill="#324134"/>
  <path id="path4143" d="m8.4821 992.87 740.09 48.392-0.003 8.215-740.09-8.215z" fill="#b3b3b3"/>
  <path id="rect4138" d="m8.4791 1001.1 739.38 48.392h-739.38z" fill="#4f7854"/>
 </g>
</svg>
